<svg width="1024" height="1024" viewBox="0 0 1024 1024" xmlns="http://www.w3.org/2000/svg">
  <!-- Background circle -->
  <circle cx="512" cy="512" r="512" fill="#1a1a2e"/>
  
  <!-- Oscar statue body -->
  <g transform="translate(512, 512)">
    <!-- Base pedestal -->
    <rect x="-120" y="200" width="240" height="60" rx="10" fill="#FFD700"/>
    
    <!-- Statue body -->
    <ellipse cx="0" cy="80" rx="60" ry="120" fill="#FFD700"/>
    
    <!-- Head -->
    <circle cx="0" cy="-40" r="45" fill="#FFD700"/>
    
    <!-- Crown -->
    <path d="M-35,-85 L-25,-100 L-15,-85 L-5,-100 L5,-85 L15,-100 L25,-85 L35,-85 L30,-70 L20,-70 L15,-60 L5,-60 L0,-70 L-5,-60 L-15,-60 L-20,-70 L-30,-70 Z" fill="#FFD700"/>
    
    <!-- Arms -->
    <ellipse cx="-80" cy="20" rx="25" ry="60" fill="#FFD700" transform="rotate(-20 -80 20)"/>
    <ellipse cx="80" cy="20" rx="25" ry="60" fill="#FFD700" transform="rotate(20 80 20)"/>
    
    <!-- Sword -->
    <rect x="-5" y="-120" width="10" height="200" fill="#FFD700"/>
    <rect x="-15" y="-120" width="30" height="15" rx="5" fill="#FFD700"/>
    
    <!-- Highlight on body -->
    <ellipse cx="-20" cy="-20" rx="15" ry="30" fill="#FFA500" opacity="0.7"/>
  </g>
  
  <!-- Decorative stars -->
  <g fill="#FFD700" opacity="0.8">
    <polygon points="200,150 210,170 230,170 215,185 220,205 200,195 180,205 185,185 170,170 190,170"/>
    <polygon points="800,200 808,216 824,216 812,228 820,244 800,236 780,244 788,228 776,216 792,216"/>
    <polygon points="150,800 158,816 174,816 162,828 170,844 150,836 130,844 138,828 126,816 142,816"/>
    <polygon points="850,750 858,766 874,766 862,778 870,794 850,786 830,794 838,778 826,766 842,766"/>
  </g>
</svg>
