<svg width="1024" height="1024" viewBox="0 0 1024 1024" xmlns="http://www.w3.org/2000/svg">
  <defs>
    <linearGradient id="goldGradient" x1="0%" y1="0%" x2="100%" y2="100%">
      <stop offset="0%" style="stop-color:#FFD700;stop-opacity:1" />
      <stop offset="50%" style="stop-color:#FFA500;stop-opacity:1" />
      <stop offset="100%" style="stop-color:#FF8C00;stop-opacity:1" />
    </linearGradient>
    <linearGradient id="backgroundGradient" x1="0%" y1="0%" x2="100%" y2="100%">
      <stop offset="0%" style="stop-color:#1a1a2e;stop-opacity:1" />
      <stop offset="100%" style="stop-color:#16213e;stop-opacity:1" />
    </linearGradient>
  </defs>
  
  <!-- Background circle -->
  <circle cx="512" cy="512" r="512" fill="url(#backgroundGradient)"/>
  
  <!-- Simplified Oscar statue -->
  <g transform="translate(512, 512)">
    <!-- Base -->
    <rect x="-100" y="180" width="200" height="40" rx="8" fill="url(#goldGradient)"/>
    
    <!-- Statue body -->
    <ellipse cx="0" cy="60" rx="50" ry="100" fill="url(#goldGradient)"/>
    
    <!-- Head -->
    <circle cx="0" cy="-30" r="35" fill="url(#goldGradient)"/>
    
    <!-- Crown -->
    <path d="M-30,-65 L-20,-75 L-10,-65 L0,-75 L10,-65 L20,-65 L15,-55 L5,-55 L0,-50 L-5,-55 L-15,-55 L-20,-55 Z" fill="url(#goldGradient)"/>
    
    <!-- Sword -->
    <rect x="-3" y="-90" width="6" height="150" fill="url(#goldGradient)"/>
    <rect x="-10" y="-90" width="20" height="10" rx="3" fill="url(#goldGradient)"/>
  </g>
</svg>
