<svg width="1024" height="1024" viewBox="0 0 1024 1024" xmlns="http://www.w3.org/2000/svg">
  <defs>
    <linearGradient id="goldGradient" x1="0%" y1="0%" x2="100%" y2="100%">
      <stop offset="0%" style="stop-color:#FFD700;stop-opacity:1" />
      <stop offset="50%" style="stop-color:#FFA500;stop-opacity:1" />
      <stop offset="100%" style="stop-color:#FF8C00;stop-opacity:1" />
    </linearGradient>
    <linearGradient id="backgroundGradient" x1="0%" y1="0%" x2="100%" y2="100%">
      <stop offset="0%" style="stop-color:#1a1a2e;stop-opacity:1" />
      <stop offset="100%" style="stop-color:#16213e;stop-opacity:1" />
    </linearGradient>
    <filter id="glow">
      <feGaussianBlur stdDeviation="3" result="coloredBlur"/>
      <feMerge> 
        <feMergeNode in="coloredBlur"/>
        <feMergeNode in="SourceGraphic"/>
      </feMerge>
    </filter>
  </defs>
  
  <!-- Background circle -->
  <circle cx="512" cy="512" r="512" fill="url(#backgroundGradient)"/>
  
  <!-- Main Oscar statue silhouette -->
  <g transform="translate(512, 512)">
    <!-- Base/Pedestal -->
    <rect x="-120" y="200" width="240" height="60" rx="10" fill="url(#goldGradient)" filter="url(#glow)"/>
    
    <!-- Statue body -->
    <ellipse cx="0" cy="80" rx="60" ry="120" fill="url(#goldGradient)" filter="url(#glow)"/>
    
    <!-- Head -->
    <circle cx="0" cy="-40" r="45" fill="url(#goldGradient)" filter="url(#glow)"/>
    
    <!-- Crown -->
    <path d="M-35,-85 L-25,-100 L-15,-85 L-5,-100 L5,-85 L15,-100 L25,-85 L35,-85 L30,-70 L20,-70 L15,-60 L5,-60 L0,-70 L-5,-60 L-15,-60 L-20,-70 L-30,-70 Z" fill="url(#goldGradient)" filter="url(#glow)"/>
    
    <!-- Arms -->
    <ellipse cx="-80" cy="20" rx="25" ry="60" fill="url(#goldGradient)" filter="url(#glow)" transform="rotate(-20 -80 20)"/>
    <ellipse cx="80" cy="20" rx="25" ry="60" fill="url(#goldGradient)" filter="url(#glow)" transform="rotate(20 80 20)"/>
    
    <!-- Sword -->
    <rect x="-5" y="-120" width="10" height="200" fill="url(#goldGradient)" filter="url(#glow)"/>
    <rect x="-15" y="-120" width="30" height="15" rx="5" fill="url(#goldGradient)" filter="url(#glow)"/>
    
    <!-- Highlight -->
    <ellipse cx="-20" cy="-20" rx="15" ry="30" fill="rgba(255,255,255,0.3)" opacity="0.6"/>
  </g>
  
  <!-- Decorative stars -->
  <g fill="url(#goldGradient)" opacity="0.7">
    <polygon points="200,150 210,170 230,170 215,185 220,205 200,195 180,205 185,185 170,170 190,170" filter="url(#glow)"/>
    <polygon points="800,200 808,216 824,216 812,228 820,244 800,236 780,244 788,228 776,216 792,216" filter="url(#glow)"/>
    <polygon points="150,800 158,816 174,816 162,828 170,844 150,836 130,844 138,828 126,816 142,816" filter="url(#glow)"/>
    <polygon points="850,750 858,766 874,766 862,778 870,794 850,786 830,794 838,778 826,766 842,766" filter="url(#glow)"/>
  </g>
</svg>
